# xmcd
#
# Track frame offsets: 
#        150
#        14440
#        29055
#        40957
#        54986
#        67355
#        78219
#        91361
#        103990
#        118165
#        130445
#        142169
#        154733
#        166231
#        179156
#        193037
#        205902
#        218259
#        230532
#        243578
#        255595
#        268827
#        281891
#        293371
#        305248
#
# Disc length: 4221 seconds
#
# Revision: 0
# Processed by: cddbd v1.5.2PL0 Copyright (c) Steve Scherf et al.
# Submitted via: ExactAudioCopy v1.0b1
#
DISCID=89107b19
DTITLE=Willie Mabon - Willie's Blues (Jasmine)
DYEAR=2013
DGENRE=Blues
TTITLE0=I Don't Know (mono)
TTITLE1=Worry Blues (mono)
TTITLE2=I'm Mad (mono)
TTITLE3=Got To Have It (mono)
TTITLE4=Beggar Or Bandit (mono)
TTITLE5=You're A Fool (mono)
TTITLE6=Monday Woman (mono)
TTITLE7=I Got To Go (mono)
TTITLE8=Life Could Be Miserable (mono)
TTITLE9=I'm Tired (mono)
TTITLE10=Late Again (mono)
TTITLE11=Poison Ivy (mono)
TTITLE12=Say Man (mono)
TTITLE13=Lonely Blues (mono)
TTITLE14=Willie's Blues (mono)
TTITLE15=Wow! I Feel So Good (mono)
TTITLE16=Someday You Will Have To Pay (mono)
TTITLE17=He Lied (mono)
TTITLE18=The Seventh Son (mono)
TTITLE19=Lucinda (mono)
TTITLE20=Knock On Wood (mono)
TTITLE21=Light Up Your Lamp (mono)
TTITLE22=Rosetta Rosetta (mono)
TTITLE23=It's Gonna Hurt You (mono)
TTITLE24=Got To Find My Baby (mono)
EXTD=
EXTT0=
EXTT1=
EXTT2=
EXTT3=
EXTT4=
EXTT5=
EXTT6=
EXTT7=
EXTT8=
EXTT9=
EXTT10=
EXTT11=
EXTT12=
EXTT13=
EXTT14=
EXTT15=
EXTT16=
EXTT17=
EXTT18=
EXTT19=
EXTT20=
EXTT21=
EXTT22=
EXTT23=
EXTT24=
PLAYORDER=
